999
"DXF R12 Output" (www.mydxf.blogspot.com)
 0 
SECTION
 2 
HEADER
 9 
$ACADVER
 1 
AC1009
 9 
$EXTMIN
 10 
 0 
 20 
 0 
 9 
$EXTMAX
 10 
 8.5 
 20 
 11 
 0 
ENDSEC
 0 
SECTION
 2 
ENTITIES
0
LINE
8
Layer 1
10
35.225757
20
284.770772
11
32.729594
21
284.644333
0
LINE
8
Layer 1
10
32.729594
20
284.644333
11
30.305541
21
284.273323
0
LINE
8
Layer 1
10
30.305541
20
284.273323
11
27.965869
21
283.670047
0
LINE
8
Layer 1
10
27.965869
20
283.670047
11
25.722849
21
282.846810
0
LINE
8
Layer 1
10
25.722849
20
282.846810
11
23.588753
21
281.815918
0
LINE
8
Layer 1
10
23.588753
20
281.815918
11
21.575852
21
280.589676
0
LINE
8
Layer 1
10
21.575852
20
280.589676
11
19.696417
21
279.180388
0
LINE
8
Layer 1
10
19.696417
20
279.180388
11
17.962720
21
277.600360
0
LINE
8
Layer 1
10
17.962720
20
277.600360
11
16.387033
21
275.861897
0
LINE
8
Layer 1
10
16.387033
20
275.861897
11
14.981625
21
273.977303
0
LINE
8
Layer 1
10
14.981625
20
273.977303
11
13.758769
21
271.958885
0
LINE
8
Layer 1
10
13.758769
20
271.958885
11
12.730736
21
269.818947
0
LINE
8
Layer 1
10
12.730736
20
269.818947
11
11.909797
21
267.569794
0
LINE
8
Layer 1
10
11.909797
20
267.569794
11
11.308224
21
265.223731
0
LINE
8
Layer 1
10
11.308224
20
265.223731
11
10.938288
21
262.793063
0
LINE
8
Layer 1
10
10.938288
20
262.793063
11
10.812260
21
260.290096
0
LINE
8
Layer 1
10
10.812260
20
260.290096
11
10.998668
21
257.330032
0
LINE
8
Layer 1
10
10.998668
20
257.330032
11
11.533099
21
254.445594
0
LINE
8
Layer 1
10
11.533099
20
254.445594
11
12.400992
21
251.664723
0
LINE
8
Layer 1
10
12.400992
20
251.664723
11
13.587789
21
249.015361
0
LINE
8
Layer 1
10
13.587789
20
249.015361
11
15.078928
21
246.525450
0
LINE
8
Layer 1
10
15.078928
20
246.525450
11
16.859852
21
244.222930
0
LINE
8
Layer 1
10
16.859852
20
244.222930
11
18.915999
21
242.135744
0
LINE
8
Layer 1
10
18.915999
20
242.135744
11
21.232812
21
240.291833
0
LINE
8
Layer 1
10
21.232812
20
240.291833
11
24.488428
21
244.941162
0
LINE
8
Layer 1
10
24.488428
20
244.941162
11
26.822135
21
243.307153
0
LINE
8
Layer 1
10
26.822135
20
243.307153
11
23.665222
21
238.798385
0
LINE
8
Layer 1
10
23.665222
20
238.798385
11
26.399893
21
237.515841
0
LINE
8
Layer 1
10
26.399893
20
237.515841
11
29.260475
21
236.584408
0
LINE
8
Layer 1
10
29.260475
20
236.584408
11
32.213563
21
236.012723
0
LINE
8
Layer 1
10
32.213563
20
236.012723
11
35.225757
21
235.809420
0
LINE
8
Layer 1
10
35.225757
20
235.809420
11
37.454373
21
235.912263
0
LINE
8
Layer 1
10
37.454373
20
235.912263
11
39.650685
21
236.216175
0
LINE
8
Layer 1
10
39.650685
20
236.216175
11
41.801897
21
236.716278
0
LINE
8
Layer 1
10
41.801897
20
236.716278
11
43.895211
21
237.407693
0
LINE
8
Layer 1
10
43.895211
20
237.407693
11
45.917831
21
238.285540
0
LINE
8
Layer 1
10
45.917831
20
238.285540
11
47.856959
21
239.344941
0
LINE
8
Layer 1
10
47.856959
20
239.344941
11
49.699799
21
240.581017
0
LINE
8
Layer 1
10
49.699799
20
240.581017
11
51.433553
21
241.988888
0
LINE
8
Layer 1
10
51.433553
20
241.988888
11
52.223169
21
241.168266
0
LINE
8
Layer 1
10
52.223169
20
241.168266
11
17.810282
21
208.051941
0
LINE
8
Layer 1
10
17.810282
20
208.051941
11
20.930505
21
204.809245
0
LINE
8
Layer 1
10
20.930505
20
204.809245
11
18.336865
21
202.313273
0
LINE
8
Layer 1
10
18.336865
20
202.313273
11
22.496301
21
197.990023
0
LINE
8
Layer 1
10
22.496301
20
197.990023
11
25.090458
21
200.486511
0
LINE
8
Layer 1
10
25.090458
20
200.486511
11
28.210681
21
197.243815
0
LINE
8
Layer 1
10
28.210681
20
197.243815
11
63.768717
21
231.462398
0
LINE
8
Layer 1
10
63.768717
20
231.462398
11
64.623962
21
230.573564
0
LINE
8
Layer 1
10
64.623962
20
230.573564
11
64.722148
21
230.668132
0
LINE
8
Layer 1
10
64.722148
20
230.668132
11
63.287618
21
228.923474
0
LINE
8
Layer 1
10
63.287618
20
228.923474
11
62.027271
21
227.065746
0
LINE
8
Layer 1
10
62.027271
20
227.065746
11
60.946202
21
225.108168
0
LINE
8
Layer 1
10
60.946202
20
225.108168
11
60.049505
21
223.063957
0
LINE
8
Layer 1
10
60.049505
20
223.063957
11
59.342275
21
220.946332
0
LINE
8
Layer 1
10
59.342275
20
220.946332
11
58.829604
21
218.768511
0
LINE
8
Layer 1
10
58.829604
20
218.768511
11
58.516588
21
216.543711
0
LINE
8
Layer 1
10
58.516588
20
216.543711
11
58.408321
21
214.285152
0
LINE
8
Layer 1
10
58.408321
20
214.285152
11
58.594766
21
211.325066
0
LINE
8
Layer 1
10
58.594766
20
211.325066
11
59.129243
21
208.440611
0
LINE
8
Layer 1
10
59.129243
20
208.440611
11
59.997191
21
205.659730
0
LINE
8
Layer 1
10
59.997191
20
205.659730
11
61.184051
21
203.010363
0
LINE
8
Layer 1
10
61.184051
20
203.010363
11
62.675261
21
200.520454
0
LINE
8
Layer 1
10
62.675261
20
200.520454
11
64.456262
21
198.217944
0
LINE
8
Layer 1
10
64.456262
20
198.217944
11
66.512491
21
196.130776
0
LINE
8
Layer 1
10
66.512491
20
196.130776
11
68.829390
21
194.286890
0
LINE
8
Layer 1
10
68.829390
20
194.286890
11
72.084489
21
198.936218
0
LINE
8
Layer 1
10
72.084489
20
198.936218
11
74.418713
21
197.302209
0
LINE
8
Layer 1
10
74.418713
20
197.302209
11
71.261283
21
192.793960
0
LINE
8
Layer 1
10
71.261283
20
192.793960
11
73.996171
21
191.511204
0
LINE
8
Layer 1
10
73.996171
20
191.511204
11
76.857002
21
190.579613
0
LINE
8
Layer 1
10
76.857002
20
190.579613
11
79.810366
21
190.007825
0
LINE
8
Layer 1
10
79.810366
20
190.007825
11
82.822852
21
189.804480
0
LINE
8
Layer 1
10
82.822852
20
189.804480
11
85.319064
21
189.930905
0
LINE
8
Layer 1
10
85.319064
20
189.930905
11
87.743166
21
190.301903
0
LINE
8
Layer 1
10
87.743166
20
190.301903
11
90.082885
21
190.905169
0
LINE
8
Layer 1
10
90.082885
20
190.905169
11
92.325952
21
191.728398
0
LINE
8
Layer 1
10
92.325952
20
191.728398
11
94.460092
21
192.759284
0
LINE
8
Layer 1
10
94.460092
20
192.759284
11
96.473036
21
193.985523
0
LINE
8
Layer 1
10
96.473036
20
193.985523
11
98.352512
21
195.394809
0
LINE
8
Layer 1
10
98.352512
20
195.394809
11
100.086246
21
196.974837
0
LINE
8
Layer 1
10
100.086246
20
196.974837
11
101.661969
21
198.713302
0
LINE
8
Layer 1
10
101.661969
20
198.713302
11
103.067408
21
200.597899
0
LINE
8
Layer 1
10
103.067408
20
200.597899
11
104.290292
21
202.616322
0
LINE
8
Layer 1
10
104.290292
20
202.616322
11
105.318349
21
204.756266
0
LINE
8
Layer 1
10
105.318349
20
204.756266
11
106.139306
21
207.005426
0
LINE
8
Layer 1
10
106.139306
20
207.005426
11
106.740894
21
209.351498
0
LINE
8
Layer 1
10
106.740894
20
209.351498
11
107.110839
21
211.782175
0
LINE
8
Layer 1
10
107.110839
20
211.782175
11
107.236870
21
214.285152
0
LINE
8
Layer 1
10
107.236870
20
214.285152
11
107.110839
21
216.788130
0
LINE
8
Layer 1
10
107.110839
20
216.788130
11
106.740894
21
219.218807
0
LINE
8
Layer 1
10
106.740894
20
219.218807
11
106.139307
21
221.564879
0
LINE
8
Layer 1
10
106.139307
20
221.564879
11
105.318350
21
223.814039
0
LINE
8
Layer 1
10
105.318350
20
223.814039
11
104.290293
21
225.953984
0
LINE
8
Layer 1
10
104.290293
20
225.953984
11
103.067410
21
227.972407
0
LINE
8
Layer 1
10
103.067410
20
227.972407
11
101.661971
21
229.857004
0
LINE
8
Layer 1
10
101.661971
20
229.857004
11
100.086248
21
231.595469
0
LINE
8
Layer 1
10
100.086248
20
231.595469
11
98.352513
21
233.175498
0
LINE
8
Layer 1
10
98.352513
20
233.175498
11
96.473038
21
234.584784
0
LINE
8
Layer 1
10
96.473038
20
234.584784
11
94.460094
21
235.811023
0
LINE
8
Layer 1
10
94.460094
20
235.811023
11
92.325953
21
236.841910
0
LINE
8
Layer 1
10
92.325953
20
236.841910
11
90.082886
21
237.665139
0
LINE
8
Layer 1
10
90.082886
20
237.665139
11
87.743166
21
238.268405
0
LINE
8
Layer 1
10
87.743166
20
238.268405
11
85.319064
21
238.639403
0
LINE
8
Layer 1
10
85.319064
20
238.639403
11
82.822852
21
238.765828
0
LINE
8
Layer 1
10
82.822852
20
238.765828
11
80.654715
21
238.667463
0
LINE
8
Layer 1
10
80.654715
20
238.667463
11
78.516426
21
238.378659
0
LINE
8
Layer 1
10
78.516426
20
238.378659
11
76.419821
21
237.903803
0
LINE
8
Layer 1
10
76.419821
20
237.903803
11
74.376734
21
237.247282
0
LINE
8
Layer 1
10
74.376734
20
237.247282
11
72.399000
21
236.413484
0
LINE
8
Layer 1
10
72.399000
20
236.413484
11
70.498456
21
235.406793
0
LINE
8
Layer 1
10
70.498456
20
235.406793
11
68.686935
21
234.231598
0
LINE
8
Layer 1
10
68.686935
20
234.231598
11
66.976274
21
232.892285
0
LINE
8
Layer 1
10
66.976274
20
232.892285
11
66.148934
21
233.752698
0
LINE
8
Layer 1
10
66.148934
20
233.752698
11
85.854708
21
252.715881
0
LINE
8
Layer 1
10
85.854708
20
252.715881
11
85.856258
21
252.714331
0
LINE
8
Layer 1
10
85.856258
20
252.714331
11
92.967969
21
264.763208
0
LINE
8
Layer 1
10
92.967969
20
264.763208
11
100.080200
21
276.812602
0
LINE
8
Layer 1
10
100.080200
20
276.812602
11
87.766736
21
270.168563
0
LINE
8
Layer 1
10
87.766736
20
270.168563
11
75.453276
21
263.524524
0
LINE
8
Layer 1
10
75.453276
20
263.524524
11
75.454309
21
263.524007
0
LINE
8
Layer 1
10
75.454309
20
263.524007
11
54.602869
21
243.458565
0
LINE
8
Layer 1
10
54.602869
20
243.458565
11
53.745557
21
244.349984
0
LINE
8
Layer 1
10
53.745557
20
244.349984
11
55.089920
21
246.068847
0
LINE
8
Layer 1
10
55.089920
20
246.068847
11
56.269558
21
247.889888
0
LINE
8
Layer 1
10
56.269558
20
247.889888
11
57.280036
21
249.801109
0
LINE
8
Layer 1
10
57.280036
20
249.801109
11
58.116917
21
251.790517
0
LINE
8
Layer 1
10
58.116917
20
251.790517
11
58.775767
21
253.846115
0
LINE
8
Layer 1
10
58.775767
20
253.846115
11
59.252150
21
255.955908
0
LINE
8
Layer 1
10
59.252150
20
255.955908
11
59.541630
21
258.107900
0
LINE
8
Layer 1
10
59.541630
20
258.107900
11
59.639771
21
260.290096
0
LINE
8
Layer 1
10
59.639771
20
260.290096
11
59.520320
21
262.709706
0
LINE
8
Layer 1
10
59.520320
20
262.709706
11
59.166355
21
265.088335
0
LINE
8
Layer 1
10
59.166355
20
265.088335
11
58.584509
21
267.409929
0
LINE
8
Layer 1
10
58.584509
20
267.409929
11
57.781411
21
269.658436
0
LINE
8
Layer 1
10
57.781411
20
269.658436
11
56.763692
21
271.817804
0
LINE
8
Layer 1
10
56.763692
20
271.817804
11
55.537985
21
273.871980
0
LINE
8
Layer 1
10
55.537985
20
273.871980
11
54.110920
21
275.804910
0
LINE
8
Layer 1
10
54.110920
20
275.804910
11
52.489128
21
277.600543
0
LINE
8
Layer 1
10
52.489128
20
277.600543
11
50.698383
21
279.226765
0
LINE
8
Layer 1
10
50.698383
20
279.226765
11
48.770713
21
280.657730
0
LINE
8
Layer 1
10
48.770713
20
280.657730
11
46.722126
21
281.886789
0
LINE
8
Layer 1
10
46.722126
20
281.886789
11
44.568632
21
282.907292
0
LINE
8
Layer 1
10
44.568632
20
282.907292
11
42.326238
21
283.712592
0
LINE
8
Layer 1
10
42.326238
20
283.712592
11
40.010956
21
284.296038
0
LINE
8
Layer 1
10
40.010956
20
284.296038
11
37.638792
21
284.650981
0
LINE
8
Layer 1
10
37.638792
20
284.650981
11
35.225757
21
284.770772
0
LINE
8
Layer 1
10
35.225757
20
284.770772
11
35.225757
21
284.770772
0
LINE
8
Layer 1
10
32.134811
20
261.047188
11
38.063184
21
261.047188
0
LINE
8
Layer 1
10
38.063184
20
261.047188
11
38.063184
21
259.518814
0
LINE
8
Layer 1
10
38.063184
20
259.518814
11
32.134811
21
259.518814
0
LINE
8
Layer 1
10
32.134811
20
259.518814
11
32.134811
21
261.047188
 0 
ENDSEC
 0 
EOF