999
"DXF R12 Output" (www.mydxf.blogspot.com)
 0 
SECTION
 2 
HEADER
 9 
$ACADVER
 1 
AC1009
 9 
$EXTMIN
 10 
 0 
 20 
 0 
 9 
$EXTMAX
 10 
 8.5 
 20 
 11 
 0 
ENDSEC
 0 
SECTION
 2 
ENTITIES
0
LINE
8
Layer 1
10
35.225757
20
284.770772
11
32.729594
21
284.644333
0
LINE
8
Layer 1
10
32.729594
20
284.644333
11
30.305541
21
284.273323
0
LINE
8
Layer 1
10
30.305541
20
284.273323
11
27.965869
21
283.670047
0
LINE
8
Layer 1
10
27.965869
20
283.670047
11
25.722849
21
282.846810
0
LINE
8
Layer 1
10
25.722849
20
282.846810
11
23.588753
21
281.815918
0
LINE
8
Layer 1
10
23.588753
20
281.815918
11
21.575852
21
280.589676
0
LINE
8
Layer 1
10
21.575852
20
280.589676
11
19.696417
21
279.180388
0
LINE
8
Layer 1
10
19.696417
20
279.180388
11
17.962720
21
277.600360
0
LINE
8
Layer 1
10
17.962720
20
277.600360
11
16.387033
21
275.861897
0
LINE
8
Layer 1
10
16.387033
20
275.861897
11
14.981625
21
273.977303
0
LINE
8
Layer 1
10
14.981625
20
273.977303
11
13.758769
21
271.958885
0
LINE
8
Layer 1
10
13.758769
20
271.958885
11
12.730736
21
269.818947
0
LINE
8
Layer 1
10
12.730736
20
269.818947
11
11.909797
21
267.569794
0
LINE
8
Layer 1
10
11.909797
20
267.569794
11
11.308224
21
265.223731
0
LINE
8
Layer 1
10
11.308224
20
265.223731
11
10.938288
21
262.793063
0
LINE
8
Layer 1
10
10.938288
20
262.793063
11
10.812260
21
260.290096
0
LINE
8
Layer 1
10
10.812260
20
260.290096
11
10.938288
21
257.787129
0
LINE
8
Layer 1
10
10.938288
20
257.787129
11
11.308224
21
255.356461
0
LINE
8
Layer 1
10
11.308224
20
255.356461
11
11.909797
21
253.010398
0
LINE
8
Layer 1
10
11.909797
20
253.010398
11
12.730736
21
250.761245
0
LINE
8
Layer 1
10
12.730736
20
250.761245
11
13.758769
21
248.621307
0
LINE
8
Layer 1
10
13.758769
20
248.621307
11
14.981625
21
246.602889
0
LINE
8
Layer 1
10
14.981625
20
246.602889
11
16.387033
21
244.718295
0
LINE
8
Layer 1
10
16.387033
20
244.718295
11
17.962720
21
242.979832
0
LINE
8
Layer 1
10
17.962720
20
242.979832
11
19.696417
21
241.399804
0
LINE
8
Layer 1
10
19.696417
20
241.399804
11
21.575852
21
239.990516
0
LINE
8
Layer 1
10
21.575852
20
239.990516
11
23.588753
21
238.764274
0
LINE
8
Layer 1
10
23.588753
20
238.764274
11
25.722849
21
237.733382
0
LINE
8
Layer 1
10
25.722849
20
237.733382
11
27.965869
21
236.910145
0
LINE
8
Layer 1
10
27.965869
20
236.910145
11
30.305541
21
236.306869
0
LINE
8
Layer 1
10
30.305541
20
236.306869
11
32.729594
21
235.935859
0
LINE
8
Layer 1
10
32.729594
20
235.935859
11
35.225757
21
235.809420
0
LINE
8
Layer 1
10
35.225757
20
235.809420
11
37.453465
21
235.914196
0
LINE
8
Layer 1
10
37.453465
20
235.914196
11
39.648724
21
236.219867
0
LINE
8
Layer 1
10
39.648724
20
236.219867
11
41.798756
21
236.721550
0
LINE
8
Layer 1
10
41.798756
20
236.721550
11
43.890780
21
237.414362
0
LINE
8
Layer 1
10
43.890780
20
237.414362
11
45.912018
21
238.293419
0
LINE
8
Layer 1
10
45.912018
20
238.293419
11
47.849690
21
239.353837
0
LINE
8
Layer 1
10
47.849690
20
239.353837
11
49.691016
21
240.590733
0
LINE
8
Layer 1
10
49.691016
20
240.590733
11
51.423218
21
241.999223
0
LINE
8
Layer 1
10
51.423218
20
241.999223
11
52.223169
21
241.168266
0
LINE
8
Layer 1
10
52.223169
20
241.168266
11
17.810282
21
208.051941
0
LINE
8
Layer 1
10
17.810282
20
208.051941
11
20.930505
21
204.809245
0
LINE
8
Layer 1
10
20.930505
20
204.809245
11
18.336865
21
202.313273
0
LINE
8
Layer 1
10
18.336865
20
202.313273
11
22.496301
21
197.990023
0
LINE
8
Layer 1
10
22.496301
20
197.990023
11
25.090458
21
200.486511
0
LINE
8
Layer 1
10
25.090458
20
200.486511
11
28.210681
21
197.243815
0
LINE
8
Layer 1
10
28.210681
20
197.243815
11
63.769234
21
231.462398
0
LINE
8
Layer 1
10
63.769234
20
231.462398
11
64.617761
21
230.580282
0
LINE
8
Layer 1
10
64.617761
20
230.580282
11
63.201845
21
228.840392
0
LINE
8
Layer 1
10
63.201845
20
228.840392
11
61.958213
21
226.989712
0
LINE
8
Layer 1
10
61.958213
20
226.989712
11
60.891817
21
225.041210
0
LINE
8
Layer 1
10
60.891817
20
225.041210
11
60.007613
21
223.007850
0
LINE
8
Layer 1
10
60.007613
20
223.007850
11
59.310554
21
220.902598
0
LINE
8
Layer 1
10
59.310554
20
220.902598
11
58.805593
21
218.738421
0
LINE
8
Layer 1
10
58.805593
20
218.738421
11
58.497686
21
216.528283
0
LINE
8
Layer 1
10
58.497686
20
216.528283
11
58.391785
21
214.285152
0
LINE
8
Layer 1
10
58.391785
20
214.285152
11
58.511239
21
211.865533
0
LINE
8
Layer 1
10
58.511239
20
211.865533
11
58.865212
21
209.486896
0
LINE
8
Layer 1
10
58.865212
20
209.486896
11
59.447072
21
207.165294
0
LINE
8
Layer 1
10
59.447072
20
207.165294
11
60.250189
21
204.916779
0
LINE
8
Layer 1
10
60.250189
20
204.916779
11
61.267930
21
202.757405
0
LINE
8
Layer 1
10
61.267930
20
202.757405
11
62.493665
21
200.703225
0
LINE
8
Layer 1
10
62.493665
20
200.703225
11
63.920762
21
198.770291
0
LINE
8
Layer 1
10
63.920762
20
198.770291
11
65.542590
21
196.974656
0
LINE
8
Layer 1
10
65.542590
20
196.974656
11
67.333373
21
195.348434
0
LINE
8
Layer 1
10
67.333373
20
195.348434
11
69.261085
21
193.917471
0
LINE
8
Layer 1
10
69.261085
20
193.917471
11
71.309715
21
192.688415
0
LINE
8
Layer 1
10
71.309715
20
192.688415
11
73.463255
21
191.667917
0
LINE
8
Layer 1
10
73.463255
20
191.667917
11
75.705694
21
190.862625
0
LINE
8
Layer 1
10
75.705694
20
190.862625
11
78.021023
21
190.279189
0
LINE
8
Layer 1
10
78.021023
20
190.279189
11
80.393234
21
189.924257
0
LINE
8
Layer 1
10
80.393234
20
189.924257
11
82.806315
21
189.804480
0
LINE
8
Layer 1
10
82.806315
20
189.804480
11
85.302527
21
189.930905
0
LINE
8
Layer 1
10
85.302527
20
189.930905
11
87.726628
21
190.301903
0
LINE
8
Layer 1
10
87.726628
20
190.301903
11
90.066348
21
190.905170
0
LINE
8
Layer 1
10
90.066348
20
190.905170
11
92.309414
21
191.728399
0
LINE
8
Layer 1
10
92.309414
20
191.728399
11
94.443554
21
192.759285
0
LINE
8
Layer 1
10
94.443554
20
192.759285
11
96.456498
21
193.985524
0
LINE
8
Layer 1
10
96.456498
20
193.985524
11
98.335973
21
195.394810
0
LINE
8
Layer 1
10
98.335973
20
195.394810
11
100.069707
21
196.974838
0
LINE
8
Layer 1
10
100.069707
20
196.974838
11
101.645430
21
198.713303
0
LINE
8
Layer 1
10
101.645430
20
198.713303
11
103.050869
21
200.597900
0
LINE
8
Layer 1
10
103.050869
20
200.597900
11
104.273752
21
202.616323
0
LINE
8
Layer 1
10
104.273752
20
202.616323
11
105.301809
21
204.756267
0
LINE
8
Layer 1
10
105.301809
20
204.756267
11
106.122766
21
207.005427
0
LINE
8
Layer 1
10
106.122766
20
207.005427
11
106.724354
21
209.351498
0
LINE
8
Layer 1
10
106.724354
20
209.351498
11
107.094299
21
211.782175
0
LINE
8
Layer 1
10
107.094299
20
211.782175
11
107.220330
21
214.285152
0
LINE
8
Layer 1
10
107.220330
20
214.285152
11
107.094299
21
216.788130
0
LINE
8
Layer 1
10
107.094299
20
216.788130
11
106.724354
21
219.218807
0
LINE
8
Layer 1
10
106.724354
20
219.218807
11
106.122767
21
221.564878
0
LINE
8
Layer 1
10
106.122767
20
221.564878
11
105.301810
21
223.814039
0
LINE
8
Layer 1
10
105.301810
20
223.814039
11
104.273754
21
225.953983
0
LINE
8
Layer 1
10
104.273754
20
225.953983
11
103.050870
21
227.972406
0
LINE
8
Layer 1
10
103.050870
20
227.972406
11
101.645431
21
229.857003
0
LINE
8
Layer 1
10
101.645431
20
229.857003
11
100.069709
21
231.595468
0
LINE
8
Layer 1
10
100.069709
20
231.595468
11
98.335974
21
233.175497
0
LINE
8
Layer 1
10
98.335974
20
233.175497
11
96.456499
21
234.584783
0
LINE
8
Layer 1
10
96.456499
20
234.584783
11
94.443555
21
235.811022
0
LINE
8
Layer 1
10
94.443555
20
235.811022
11
92.309415
21
236.841909
0
LINE
8
Layer 1
10
92.309415
20
236.841909
11
90.066348
21
237.665138
0
LINE
8
Layer 1
10
90.066348
20
237.665138
11
87.726629
21
238.268404
0
LINE
8
Layer 1
10
87.726629
20
238.268404
11
85.302527
21
238.639403
0
LINE
8
Layer 1
10
85.302527
20
238.639403
11
82.806315
21
238.765828
0
LINE
8
Layer 1
10
82.806315
20
238.765828
11
80.639702
21
238.667523
0
LINE
8
Layer 1
10
80.639702
20
238.667523
11
78.502880
21
238.379044
0
LINE
8
Layer 1
10
78.502880
20
238.379044
11
76.407663
21
237.904766
0
LINE
8
Layer 1
10
76.407663
20
237.904766
11
74.365861
21
237.249064
0
LINE
8
Layer 1
10
74.365861
20
237.249064
11
72.389287
21
236.416313
0
LINE
8
Layer 1
10
72.389287
20
236.416313
11
70.489750
21
235.410889
0
LINE
8
Layer 1
10
70.489750
20
235.410889
11
68.679064
21
234.237166
0
LINE
8
Layer 1
10
68.679064
20
234.237166
11
66.969039
21
232.899520
0
LINE
8
Layer 1
10
66.969039
20
232.899520
11
66.148934
21
233.752698
0
LINE
8
Layer 1
10
66.148934
20
233.752698
11
85.854708
21
252.715881
0
LINE
8
Layer 1
10
85.854708
20
252.715881
11
85.856258
21
252.714331
0
LINE
8
Layer 1
10
85.856258
20
252.714331
11
92.967969
21
264.763208
0
LINE
8
Layer 1
10
92.967969
20
264.763208
11
100.080200
21
276.812602
0
LINE
8
Layer 1
10
100.080200
20
276.812602
11
87.766736
21
270.168563
0
LINE
8
Layer 1
10
87.766736
20
270.168563
11
75.453276
21
263.524524
0
LINE
8
Layer 1
10
75.453276
20
263.524524
11
75.454309
21
263.524007
0
LINE
8
Layer 1
10
75.454309
20
263.524007
11
54.602869
21
243.458565
0
LINE
8
Layer 1
10
54.602869
20
243.458565
11
53.745040
21
244.350500
0
LINE
8
Layer 1
10
53.745040
20
244.350500
11
55.089435
21
246.069286
0
LINE
8
Layer 1
10
55.089435
20
246.069286
11
56.269115
21
247.890251
0
LINE
8
Layer 1
10
56.269115
20
247.890251
11
57.279643
21
249.801400
0
LINE
8
Layer 1
10
57.279643
20
249.801400
11
58.116586
21
251.790738
0
LINE
8
Layer 1
10
58.116586
20
251.790738
11
58.775505
21
253.846272
0
LINE
8
Layer 1
10
58.775505
20
253.846272
11
59.251967
21
255.956006
0
LINE
8
Layer 1
10
59.251967
20
255.956006
11
59.541534
21
258.107945
0
LINE
8
Layer 1
10
59.541534
20
258.107945
11
59.639771
21
260.290096
0
LINE
8
Layer 1
10
59.639771
20
260.290096
11
59.520320
21
262.709706
0
LINE
8
Layer 1
10
59.520320
20
262.709706
11
59.166355
21
265.088335
0
LINE
8
Layer 1
10
59.166355
20
265.088335
11
58.584509
21
267.409929
0
LINE
8
Layer 1
10
58.584509
20
267.409929
11
57.781411
21
269.658436
0
LINE
8
Layer 1
10
57.781411
20
269.658436
11
56.763692
21
271.817804
0
LINE
8
Layer 1
10
56.763692
20
271.817804
11
55.537985
21
273.871980
0
LINE
8
Layer 1
10
55.537985
20
273.871980
11
54.110920
21
275.804910
0
LINE
8
Layer 1
10
54.110920
20
275.804910
11
52.489128
21
277.600543
0
LINE
8
Layer 1
10
52.489128
20
277.600543
11
50.698383
21
279.226765
0
LINE
8
Layer 1
10
50.698383
20
279.226765
11
48.770713
21
280.657730
0
LINE
8
Layer 1
10
48.770713
20
280.657730
11
46.722126
21
281.886789
0
LINE
8
Layer 1
10
46.722126
20
281.886789
11
44.568632
21
282.907292
0
LINE
8
Layer 1
10
44.568632
20
282.907292
11
42.326238
21
283.712592
0
LINE
8
Layer 1
10
42.326238
20
283.712592
11
40.010956
21
284.296038
0
LINE
8
Layer 1
10
40.010956
20
284.296038
11
37.638792
21
284.650981
0
LINE
8
Layer 1
10
37.638792
20
284.650981
11
35.225757
21
284.770772
0
LINE
8
Layer 1
10
35.225757
20
284.770772
11
35.225757
21
284.770772
0
LINE
8
Layer 1
10
32.223701
20
260.957901
11
37.961411
21
260.957901
0
LINE
8
Layer 1
10
37.961411
20
260.957901
11
37.961411
21
259.620190
0
LINE
8
Layer 1
10
37.961411
20
259.620190
11
32.223701
21
259.620190
0
LINE
8
Layer 1
10
32.223701
20
259.620190
11
32.223701
21
260.957901
 0 
ENDSEC
 0 
EOF